# xmcd
#
# Track frame offsets:
#	183
#	9833
#	26405
#	32555
#	39950
#	49930
#	58525
#	68285
#	82230
#	90425
#	103810
#	112043
#	117558
#	140248
#	159685
#	178463
#	186290
#	198685
#	220415
#	234878
#	247565
#	261998
#
# Disc length: 3722 seconds
#
# Revision: 1
# Processed by: cddbd v1.5.2PL0 Copyright (c) Steve Scherf et al.
# Submitted via: audiograbber 1.83.01
#
DISCID=350e8816
DTITLE=Ward Singers, The Clara - The Clara Ward Singers
DYEAR=1963
DGENRE=Gospel
TTITLE0=Move on up a little higher
TTITLE1=Waiting for me
TTITLE2=Swing low sweet Chariot
TTITLE3=Joshua
TTITLE4=Babylon
TTITLE5=Go down Moses
TTITLE6=Resurrection morning
TTITLE7=Walk with me
TTITLE8=Bye and bye
TTITLE9=Blessed assurance
TTITLE10=Whiter than snow
TTITLE11=Get away Jordan
TTITLE12=Give me that old time religion - What a friend we have in Jesus
TTITLE13=I heard the voice
TTITLE14=Keep me every day
TTITLE15=When I get to glory
TTITLE16=When the saints go marching in
TTITLE17=The seven seals
TTITLE18=Jesus hears every prayer
TTITLE19=There'll be rest bye and bye
TTITLE20=I'll send a comforter
TTITLE21=He'll never fail you
EXTD=
EXTT0=
EXTT1=
EXTT2=
EXTT3=
EXTT4=
EXTT5=
EXTT6=
EXTT7=
EXTT8=
EXTT9=
EXTT10=
EXTT11=
EXTT12=
EXTT13=
EXTT14=
EXTT15=
EXTT16=
EXTT17=
EXTT18=
EXTT19=
EXTT20=
EXTT21=
PLAYORDER=
